<?xml version="1.0" encoding="UTF-8"?>
<svg width="24px" height="24px" viewBox="0 0 24 24" version="1.1" xmlns="http://www.w3.org/2000/svg" xmlns:xlink="http://www.w3.org/1999/xlink">
    <title>Facebook Icon</title>
    <g id="Facebook-Icon" stroke="none" stroke-width="1" fill="none" fill-rule="evenodd">
        <path d="M13.5964296,24 L10.6453945,24 C9.88871884,24 9.28337831,23.3584906 9.28337831,22.5660377 L9.28337831,13.5849057 L6.86201619,13.5849057 C6.10534053,13.5849057 5.5,12.9433962 5.5,12.1509434 L5.5,9.54716981 C5.5,8.75471698 6.10534053,8.11320755 6.86201619,8.11320755 L9.20771074,8.11320755 L9.20771074,5.73584906 C9.20771074,2.30188679 11.250735,0 14.2774377,0 L16.5474647,0 C17.3041403,0 17.9094809,0.641509434 17.9094809,1.43396226 L17.9094809,4.49056604 C17.9094809,5.28301887 17.3041403,5.9245283 16.5474647,5.9245283 L14.9962796,5.9245283 C14.9584458,5.9245283 14.9584458,5.9245283 14.920612,5.9245283 C14.920612,5.96226415 14.920612,6 14.920612,6.03773585 L14.920612,8.0754717 L17.0771376,8.0754717 C17.531143,8.11320755 17.9094809,8.30188679 18.1743173,8.60377358 C18.4391538,8.94339623 18.5526552,9.39622642 18.4769876,9.81132075 C18.4769876,9.81132075 18.4769876,9.81132075 18.4769876,9.81132075 L18.0229822,12.3773585 C17.9473146,13.0566038 17.3798079,13.5471698 16.660966,13.5471698 L14.920612,13.5471698 L14.920612,22.5660377 C14.920612,23.3207547 14.3152715,24 13.5964296,24 Z M9.92655262,12.2641509 C10.3048905,12.2641509 10.6075607,12.5660377 10.6075607,12.9433962 L10.6075607,22.5660377 C10.6075607,22.6415094 10.6453945,22.6792453 10.6453945,22.6792453 L13.5964296,22.6792453 C13.5964296,22.6792453 13.6342634,22.6415094 13.6342634,22.5660377 L13.6342634,12.8679245 C13.6342634,12.490566 13.9369336,12.1886792 14.3152715,12.1886792 L16.6987998,12.1886792 C16.6987998,12.1886792 16.7366336,12.1886792 16.7366336,12.1509434 C16.7366336,12.1509434 16.7366336,12.1132075 16.7366336,12.1132075 L17.190639,9.58490566 C17.190639,9.50943396 17.190639,9.47169811 17.1528052,9.43396226 C17.1528052,9.43396226 17.1149714,9.39622642 17.0771376,9.39622642 L14.2774377,9.39622642 C13.8990998,9.39622642 13.5964296,9.09433962 13.5964296,8.71698113 L13.5964296,6.03773585 C13.5964296,5.35849057 13.7099309,4.60377358 14.9962796,4.60377358 L16.5474647,4.60377358 C16.5474647,4.60377358 16.5852984,4.56603774 16.5852984,4.49056604 L16.5852984,1.47169811 C16.5852984,1.39622642 16.5474647,1.35849057 16.5474647,1.35849057 L14.3152715,1.35849057 C12.0452445,1.35849057 10.5697269,3.09433962 10.5697269,5.77358491 L10.5697269,8.83018868 C10.5697269,9.20754717 10.2670567,9.50943396 9.88871884,9.50943396 L6.86201619,9.50943396 C6.86201619,9.50943396 6.82418241,9.54716981 6.82418241,9.62264151 L6.82418241,12.2264151 C6.82418241,12.3018868 6.86201619,12.3396226 6.86201619,12.3396226 L9.92655262,12.2641509 Z" id="Shape" fill="#FFFFFF" fill-rule="nonzero"></path>
    </g>
</svg>