<?xml version="1.0" encoding="UTF-8"?>
<svg width="512px" height="179px" viewBox="0 0 512 179" version="1.1" xmlns="http://www.w3.org/2000/svg" xmlns:xlink="http://www.w3.org/1999/xlink">
    <title>Guest House Logotype Light Horizontal</title>
    <g id="Guest-House-Logotype-Light-Horizontal" stroke="none" stroke-width="1" fill="none" fill-rule="evenodd">
        <path d="M0,0 L512,0.0149291076 L512,178.925354 L178.882219,179 L0,179 L0,0 Z M167.095985,11.793995 L11.7862346,11.793995 L11.7862346,167.206005 L167.095985,167.206005 L167.095985,11.793995 Z M500.258523,11.7641368 L178.882219,11.7641368 L178.882219,167.176147 L500.258523,167.176147 L500.258523,11.7641368 Z M337.608485,94.769975 L337.608485,123.359216 C337.608485,127.673728 338.608077,130.808841 340.577423,132.764554 C342.576607,134.720267 345.02337,135.705588 347.962469,135.705588 C350.886648,135.705588 353.34833,134.720267 355.332595,132.764554 C357.31686,130.808841 358.301533,127.673728 358.301533,123.359216 L358.301533,123.359216 L358.301533,94.769975 L368.088583,94.769975 L368.088583,123.568224 C368.088583,130.390826 366.134157,135.645872 362.210385,139.34829 C358.286613,143.065638 353.542281,144.931776 347.962469,144.931776 C342.322979,144.931776 337.563727,143.065638 333.669794,139.34829 C329.775861,135.645872 327.821435,130.390826 327.821435,123.568224 L327.821435,123.568224 L327.821435,94.769975 L337.608485,94.769975 Z M398.646261,94.2623853 C402.062778,94.2623853 405.434536,95.0088407 408.791375,96.5017515 C412.148214,97.9946622 415.14699,99.9951626 417.802623,102.503253 L417.802623,102.503253 L411.417169,108.385321 C409.611935,106.922269 407.508316,105.742869 405.076473,104.832193 C402.62971,103.936447 400.496253,103.488574 398.646261,103.488574 L398.646261,103.488574 L398.094248,103.488574 C396.005548,103.488574 394.066041,103.921518 392.245888,104.802335 C390.425736,105.683153 389.515659,107.086489 389.515659,109.027273 C389.515659,110.535113 390.231785,111.654796 391.664036,112.356464 C393.111207,113.073061 395.155149,113.59558 397.795862,113.92402 L397.795862,113.92402 L401.779311,114.356964 C407.314366,115.013845 411.626039,116.521685 414.714331,118.865555 C417.817542,121.194495 419.369147,124.777481 419.369147,129.599583 C419.369147,134.242535 417.548995,137.944954 413.938528,140.706839 C410.313142,143.468724 405.688164,144.886989 400.078513,144.931776 L400.078513,144.931776 L399.645853,144.931776 C394.976117,144.931776 390.828556,143.991243 387.20317,142.125104 C383.577784,140.258966 380.713282,137.855379 378.594743,134.914345 L378.594743,134.914345 L384.965278,129.047206 C386.248336,130.838699 388.158005,132.391326 390.709202,133.720017 C393.2604,135.048707 396.244257,135.705588 399.645853,135.705588 L399.645853,135.705588 L400.078513,135.705588 C402.957935,135.660801 405.255504,135.093495 406.986141,134.00367 C408.716778,132.913845 409.582097,131.450792 409.582097,129.599583 C409.582097,127.614012 408.791375,126.180817 407.239769,125.314929 C405.673244,124.434112 403.405513,123.822018 400.421656,123.433862 L400.421656,123.433862 L396.527723,123.000917 C385.323341,121.672227 379.728609,117.148707 379.728609,109.385571 C379.728609,104.832193 381.459246,101.20442 384.935439,98.5022519 C388.411632,95.7702252 392.782983,94.3668891 398.094248,94.2623853 L398.094248,94.2623853 Z M290.961851,94.2698499 C297.958995,94.2698499 303.926709,96.7480817 308.850073,101.674687 C313.803275,106.631151 316.279876,112.602794 316.279876,119.604545 C316.279876,126.591368 313.803275,132.57794 308.850073,137.519475 C303.926709,142.44608 297.958995,144.924312 290.961851,144.924312 C283.964707,144.924312 278.011912,142.44608 273.088548,137.519475 C268.165184,132.57794 265.718422,126.591368 265.718422,119.604545 C265.718422,112.602794 268.165184,106.631151 273.088548,101.674687 C278.011912,96.7480817 283.964707,94.2698499 290.961851,94.2698499 Z M225.085751,94.769975 L225.085751,114.849625 L244.301789,114.849625 L244.301789,94.769975 L254.08884,94.769975 L254.08884,144.439116 L244.301789,144.439116 L244.301789,124.075813 L225.085751,124.075813 L225.085751,144.439116 L215.2987,144.439116 L215.2987,94.769975 L225.085751,94.769975 Z M463.545148,94.7640033 L463.545148,103.990192 L440.285984,103.990192 L440.285984,114.843653 L461.769753,114.843653 L461.769753,124.069842 L440.285984,124.069842 L440.285984,135.206956 L463.545148,135.206956 L463.545148,144.433144 L430.498934,144.433144 L430.498934,94.7640033 L463.545148,94.7640033 Z M144.822985,35.2610592 L144.822985,47.0102669 L47.0121569,47.0102669 L47.0121569,131.927031 L133.081508,131.927031 L133.081508,95.3507173 L89.4575208,95.3507173 L89.4575208,83.6015096 L144.822985,83.6015096 L144.822985,143.676239 L35.2706801,143.676239 L35.2706801,35.2610592 L144.822985,35.2610592 Z M290.961851,103.496038 C286.560662,103.496038 282.890518,105.003878 279.9365,108.034487 C276.967562,111.065096 275.505472,114.916806 275.505472,119.604545 C275.505472,124.322143 276.967562,128.203711 279.9365,131.204462 C282.890518,134.205213 286.560662,135.713053 290.961851,135.713053 C295.407798,135.713053 299.092861,134.205213 302.061798,131.204462 C305.000897,128.203711 306.492826,124.322143 306.492826,119.604545 C306.492826,114.916806 305.000897,111.065096 302.017041,108.034487 C299.048103,105.003878 295.36304,103.496038 290.961851,103.496038 Z M237.213637,34.0876314 C244.583764,34.0876314 250.820024,36.8345872 255.937339,42.3135696 L255.937339,42.3135696 L249.551885,48.195638 C246.284562,44.9261635 242.181759,43.2988907 237.213637,43.2988907 C232.812448,43.2988907 229.142304,44.8067306 226.188286,47.8074812 C223.219348,50.8082319 221.757259,54.6897998 221.757259,59.4073978 C221.757259,64.0951376 223.219348,67.9617765 226.188286,70.9774562 C229.142304,74.0080651 232.812448,75.530834 237.213637,75.530834 C240.570476,75.530834 243.539414,74.6052294 246.150288,72.75402 L246.150288,72.75402 L246.150288,64.1697832 L237.064444,64.1697832 L237.064444,56.794804 L255.937339,56.794804 L255.937339,76.501226 C250.820024,81.9951376 244.583764,84.7420934 237.213637,84.7420934 C230.216493,84.7420934 224.263698,82.2638616 219.340335,77.3223269 C214.416971,72.3957214 211.970208,66.4091493 211.970208,59.4073978 C211.970208,52.4205755 214.416971,46.4340033 219.340335,41.4924687 C224.263698,36.5509341 230.216493,34.0876314 237.213637,34.0876314 Z M398.656705,34.0085071 C402.058302,34.0085071 405.444979,34.7549625 408.786899,36.2478732 C412.158657,37.740784 415.157433,39.7263553 417.798147,42.2493745 L417.798147,42.2493745 L411.412693,48.1314429 C409.622379,46.6683903 407.503841,45.4740617 405.071997,44.5783153 C402.640154,43.6825688 400.491777,43.2346956 398.656705,43.2346956 L398.656705,43.2346956 L398.089772,43.2346956 C396.001072,43.2346956 394.061565,43.6676397 392.241413,44.548457 C390.42126,45.4143453 389.511184,46.8326105 389.511184,48.7733945 C389.511184,50.2812344 390.227309,51.4009174 391.67448,52.1025855 C393.12165,52.8191827 395.150673,53.3417014 397.806306,53.6701418 L397.806306,53.6701418 L401.774835,54.0881568 C407.30989,54.7450375 411.621563,56.2528774 414.709855,58.5967473 C417.813066,60.9256881 419.364672,64.523603 419.364672,69.3457048 C419.364672,73.9737281 417.559438,77.6910759 413.934052,80.4380317 C410.323585,83.2148457 405.698607,84.6181818 400.074037,84.6778982 L400.074037,84.6778982 L399.641378,84.6778982 C394.971642,84.6778982 390.824081,83.7373645 387.198695,81.871226 C383.588228,79.9901585 380.723725,77.6015013 378.590267,74.6604671 L378.590267,74.6604671 L384.975721,68.7783987 C386.24386,70.5848207 388.168448,72.1374479 390.719646,73.4512093 C393.255924,74.7798999 396.2547,75.4517098 399.641378,75.4517098 L399.641378,75.4517098 L400.074037,75.4517098 C402.968378,75.4069224 405.251029,74.8246872 406.981666,73.7497915 C408.712303,72.6599666 409.577621,71.181985 409.577621,69.3457048 C409.577621,67.3601334 408.786899,65.9269391 407.235293,65.0461218 C405.668769,64.1802335 403.415957,63.553211 400.4321,63.1650542 L400.4321,63.1650542 L396.523247,62.7470392 C385.318865,61.4183486 379.724133,56.8798999 379.724133,49.116764 C379.724133,44.5783153 381.45477,40.9505421 384.930963,38.2334445 C388.407157,35.516347 392.793426,34.1130108 398.089772,34.0085071 L398.089772,34.0085071 Z M280.64815,34.5101251 L280.64815,63.0993661 C280.64815,67.4138782 281.647742,70.5489908 283.617087,72.5047039 C285.616271,74.460417 288.063034,75.4457381 291.002133,75.4457381 C293.926313,75.4457381 296.387995,74.460417 298.372259,72.5047039 C300.356524,70.5489908 301.341197,67.4138782 301.341197,63.0993661 L301.341197,63.0993661 L301.341197,34.5101251 L311.128248,34.5101251 L311.128248,63.3083736 C311.128248,70.1309758 309.173821,75.3860217 305.25005,79.0884404 C301.326278,82.8057882 296.581945,84.6719266 291.002133,84.6719266 C285.362644,84.6719266 280.603392,82.8057882 276.709459,79.0884404 C272.815525,75.3860217 270.861099,70.1309758 270.861099,63.3083736 L270.861099,63.3083736 L270.861099,34.5101251 L280.64815,34.5101251 Z M364.4811,34.5101251 L364.4811,43.7363136 L341.221936,43.7363136 L341.221936,54.5897748 L362.705705,54.5897748 L362.705705,63.8159633 L341.221936,63.8159633 L341.221936,74.9530776 L364.4811,74.9530776 L364.4811,84.1792661 L331.434885,84.1792661 L331.434885,34.5101251 L364.4811,34.5101251 Z M465.532397,34.5041535 L465.532397,43.730342 L451.91109,43.730342 L451.91109,84.1732944 L442.12404,84.1732944 L442.12404,43.730342 L428.517653,43.730342 L428.517653,34.5041535 L465.532397,34.5041535 Z" id="Combined-Shape" fill="#FFFFFF"></path>
    </g>
</svg>