<?xml version="1.0" encoding="UTF-8"?>
<svg width="24px" height="24px" viewBox="0 0 24 24" version="1.1" xmlns="http://www.w3.org/2000/svg" xmlns:xlink="http://www.w3.org/1999/xlink">
    <title>Bed Icon</title>
    <g id="Bed-Icon" stroke="none" stroke-width="1" fill="none" fill-rule="evenodd">
        <path d="M20.3851351,17.1818182 C20.3851351,17.1818182 20.3851351,17.1428571 20.3851351,17.1428571 C20.3851351,17.1428571 20.3851351,17.1428571 20.3851351,17.1038961 L18.0878378,7.48051948 L18.0878378,2.1038961 C18.0878378,0.935064935 17.1689189,0 16.0202703,0 L7.90315315,0 C6.7545045,0 5.83558559,0.935064935 5.83558559,2.1038961 L5.83558559,7.48051948 L3.53828829,17.1038961 C3.53828829,17.1038961 3.53828829,17.1038961 3.53828829,17.1038961 C3.53828829,17.1428571 3.5,17.2207792 3.5,17.2597403 C3.5,17.2597403 3.5,17.2597403 3.5,17.2597403 L3.5,23.2987013 C3.5,23.6883117 3.80630631,24 4.18918919,24 C4.57207207,24 4.87837838,23.6883117 4.87837838,23.2987013 L4.87837838,22.2077922 C5.03153153,21.7792208 7.32882883,20.7272727 12,20.7272727 C16.6711712,20.7272727 18.9684685,21.8181818 19.1216216,22.2077922 L19.1216216,23.2987013 C19.1216216,23.6883117 19.4279279,24 19.8108108,24 C20.1936937,24 20.5,23.6883117 20.5,23.2987013 L20.5,17.2987013 C20.4234234,17.2597403 20.3851351,17.2207792 20.3851351,17.1818182 Z M7.02252252,8.25974026 L16.8626126,8.25974026 L18.8536036,16.5974026 L5.03153153,16.5974026 L7.02252252,8.25974026 Z M7.17567568,2.1038961 C7.17567568,1.71428571 7.48198198,1.36363636 7.90315315,1.36363636 L16.0202703,1.36363636 C16.4031532,1.36363636 16.7477477,1.67532468 16.7477477,2.1038961 L16.7477477,6.8961039 L7.17567568,6.8961039 L7.17567568,2.1038961 L7.17567568,2.1038961 Z M11.9617117,19.3636364 C9.81756757,19.3636364 6.63963964,19.6363636 4.84009009,20.5324675 L4.84009009,17.961039 L19.045045,17.961039 L19.045045,20.5324675 C17.2837838,19.6363636 14.1058559,19.3636364 11.9617117,19.3636364 Z" id="Shape" fill="#52503B" fill-rule="nonzero"></path>
    </g>
</svg>