<?xml version="1.0" encoding="UTF-8"?>
<svg width="24px" height="24px" viewBox="0 0 24 24" version="1.1" xmlns="http://www.w3.org/2000/svg" xmlns:xlink="http://www.w3.org/1999/xlink">
    <title>Stove Icon</title>
    <g id="Stove-Icon" stroke="none" stroke-width="1" fill="none" fill-rule="evenodd">
        <path d="M22.0909091,0 C23.1038961,0 23.961039,0.819512195 24,1.83414634 L24,1.83414634 L24,22.1268293 C24,23.1804878 23.1428571,24 22.1298701,24 L22.1298701,24 L1.87012987,24 C0.818181818,24 0,23.1414634 0,22.1268293 L0,22.1268293 L0,1.83414634 C0,0.819512195 0.818181818,0 1.83116883,0 L1.83116883,0 Z M22.0909091,1.32682927 L1.83116883,1.32682927 C1.55844156,1.32682927 1.32467532,1.56097561 1.32467532,1.83414634 L1.32467532,1.83414634 L1.32467532,22.1268293 C1.32467532,22.4 1.55844156,22.6341463 1.83116883,22.6341463 L1.83116883,22.6341463 L22.0909091,22.6341463 C22.3636364,22.6341463 22.5974026,22.4 22.5974026,22.1268293 L22.5974026,22.1268293 L22.5974026,1.83414634 C22.5974026,1.56097561 22.3636364,1.32682927 22.0909091,1.32682927 L22.0909091,1.32682927 Z M14.961039,19.7463415 C15.3506494,19.7463415 15.6623377,20.0585366 15.6623377,20.4487805 C15.6623377,20.8390244 15.3506494,21.1512195 14.961039,21.1512195 L14.961039,21.1512195 L14.3766234,21.1512195 C13.987013,21.1512195 13.6753247,20.8390244 13.6753247,20.4487805 C13.6753247,20.0585366 13.987013,19.7463415 14.3766234,19.7463415 L14.3766234,19.7463415 Z M18.5844156,19.7463415 C18.974026,19.7463415 19.2857143,20.0585366 19.2857143,20.4487805 C19.2857143,20.8390244 18.974026,21.1512195 18.5844156,21.1512195 L18.5844156,21.1512195 L18,21.1512195 C17.6103896,21.1512195 17.2987013,20.8390244 17.2987013,20.4487805 C17.2987013,20.0585366 17.6103896,19.7463415 18,19.7463415 L18,19.7463415 Z M7.05194805,12.2536585 C8.68831169,12.2536585 10.0519481,13.6195122 10.0519481,15.2585366 C10.0519481,16.897561 8.68831169,18.2634146 7.05194805,18.2634146 C5.41558442,18.2634146 4.05194805,16.897561 4.05194805,15.2585366 C4.05194805,13.6195122 5.41558442,12.2536585 7.05194805,12.2536585 Z M16.8701299,12.2536585 C18.5454545,12.2536585 19.8701299,13.6195122 19.8701299,15.2585366 C19.8701299,16.897561 18.5064935,18.2634146 16.8701299,18.2634146 C15.2337662,18.2634146 13.8701299,16.897561 13.8701299,15.2585366 C13.8701299,13.6195122 15.2337662,12.2536585 16.8701299,12.2536585 Z M7.05194805,13.6195122 C6.15584416,13.6195122 5.41558442,14.3609756 5.41558442,15.2585366 C5.41558442,16.1560976 6.15584416,16.897561 7.05194805,16.897561 C7.94805195,16.897561 8.68831169,16.1560976 8.68831169,15.2585366 C8.68831169,14.3609756 7.94805195,13.6195122 7.05194805,13.6195122 Z M16.8701299,13.6195122 C15.974026,13.6195122 15.2337662,14.3609756 15.2337662,15.2585366 C15.2337662,16.1560976 15.974026,16.897561 16.8701299,16.897561 C17.7662338,16.897561 18.5064935,16.1560976 18.5064935,15.2585366 C18.5064935,14.3609756 17.7662338,13.6195122 16.8701299,13.6195122 Z M7.05194805,3.55121951 C8.68831169,3.55121951 10.0519481,4.87804878 10.0519481,6.55609756 C10.0519481,8.19512195 8.68831169,9.56097561 7.05194805,9.56097561 C5.41558442,9.56097561 4.05194805,8.19512195 4.05194805,6.55609756 C4.05194805,4.91707317 5.41558442,3.55121951 7.05194805,3.55121951 Z M16.8701299,3.55121951 C18.5454545,3.55121951 19.8701299,4.87804878 19.8701299,6.55609756 C19.8701299,8.19512195 18.5064935,9.56097561 16.8701299,9.56097561 C15.2337662,9.56097561 13.8701299,8.19512195 13.8701299,6.55609756 C13.8701299,4.91707317 15.2337662,3.55121951 16.8701299,3.55121951 Z M7.05194805,4.91707317 C6.15584416,4.91707317 5.41558442,5.65853659 5.41558442,6.55609756 C5.41558442,7.45365854 6.15584416,8.19512195 7.05194805,8.19512195 C7.94805195,8.19512195 8.68831169,7.45365854 8.68831169,6.55609756 C8.68831169,5.65853659 7.94805195,4.91707317 7.05194805,4.91707317 Z M16.8701299,4.91707317 C15.974026,4.91707317 15.2337662,5.65853659 15.2337662,6.55609756 C15.2337662,7.45365854 15.974026,8.19512195 16.8701299,8.19512195 C17.7662338,8.19512195 18.5064935,7.45365854 18.5064935,6.55609756 C18.5064935,5.65853659 17.7662338,4.91707317 16.8701299,4.91707317 Z" id="Combined-Shape" fill="#52503B" fill-rule="nonzero"></path>
    </g>
</svg>