<?xml version="1.0" encoding="UTF-8"?>
<svg width="24px" height="24px" viewBox="0 0 24 24" version="1.1" xmlns="http://www.w3.org/2000/svg" xmlns:xlink="http://www.w3.org/1999/xlink">
    <title>Forest Icon</title>
    <g id="Forest-Icon" stroke="none" stroke-width="1" fill="none" fill-rule="evenodd">
        <path d="M15.4285714,7.56716418 L15.605645,7.57375977 C16.421645,7.6350533 17.0883117,8.11982942 17.4155844,8.87206823 L17.4155844,8.87206823 L21.974026,19.6567164 L23.2987013,19.6567164 C23.6883117,19.6567164 24,19.9253731 24,20.3091684 C24,20.6929638 23.6883117,21 23.2987013,21 L23.2987013,21 L0.701298701,21 C0.311688312,21 0,20.7313433 0,20.347548 C0,19.9637527 0.311688312,19.6567164 0.701298701,19.6567164 L0.701298701,19.6567164 L1.55844156,19.6567164 L5.53246753,10.0618337 C5.84415584,9.25586354 6.58441558,8.75692964 7.48051948,8.75692964 C8.37662338,8.79530917 9.11688312,9.25586354 9.46753247,10.0618337 L9.46753247,10.0618337 L11.2597403,14.2452026 L13.4805195,8.87206823 C13.7922078,8.06609808 14.5324675,7.56716418 15.4285714,7.56716418 L15.4285714,7.56716418 Z M15.4285714,8.94882729 L15.3902836,8.95003837 C15.24246,8.95897725 14.9043684,9.02558635 14.7272727,9.40938166 L14.7272727,9.40938166 L11.961039,16.0490405 L13.5194805,19.6950959 L14.8051948,19.6950959 L14.8051948,18.7739872 C14.025974,18.4285714 13.4805195,17.5074627 13.4805195,16.3560768 C13.4805195,14.8976546 14.3766234,13.7846482 15.4675325,13.7846482 C16.5584416,13.7846482 17.4545455,14.9360341 17.4545455,16.3560768 C17.4545455,17.5074627 16.9480519,18.4285714 16.1688312,18.7739872 L16.1688312,18.7739872 L16.1688312,19.6950959 L20.4935065,19.6950959 L16.1298701,9.40938166 C15.974026,8.98720682 15.5454545,8.94882729 15.4285714,8.94882729 L15.4285714,8.94882729 Z M7.48051948,10.1385928 C7.36363636,10.1385928 6.97402597,10.1769723 6.77922078,10.5991471 L6.77922078,10.5991471 L3,19.6950959 L12.038961,19.6950959 L8.18181818,10.5991471 C8.02597403,10.1769723 7.5974026,10.1385928 7.48051948,10.1385928 Z M15.4675325,15.0895522 C15.2337662,15.0895522 14.8441558,15.5501066 14.8441558,16.3176972 C14.8441558,17.0852878 15.1948052,17.5458422 15.4675325,17.5458422 C15.7402597,17.5458422 16.0909091,17.0852878 16.0909091,16.3176972 C16.0909091,15.5501066 15.7012987,15.0895522 15.4675325,15.0895522 Z M20.5324675,3 C21.8961039,3 22.987013,4.07462687 22.987013,5.41791045 C22.987013,6.76119403 21.8571429,7.8358209 20.5324675,7.8358209 C19.2077922,7.8358209 18.0779221,6.76119403 18.0779221,5.41791045 C18.0779221,4.07462687 19.1688312,3 20.5324675,3 Z M20.5324675,4.38166311 C19.9480519,4.38166311 19.4415584,4.84221748 19.4415584,5.45628998 C19.4415584,6.07036247 19.9090909,6.53091684 20.5324675,6.53091684 C21.1558442,6.53091684 21.6233766,6.07036247 21.6233766,5.45628998 C21.6233766,4.84221748 21.1168831,4.38166311 20.5324675,4.38166311 Z" id="Combined-Shape" fill="#52503B" fill-rule="nonzero"></path>
    </g>
</svg>