<?xml version="1.0" encoding="UTF-8"?>
<svg width="24px" height="24px" viewBox="0 0 24 24" version="1.1" xmlns="http://www.w3.org/2000/svg" xmlns:xlink="http://www.w3.org/1999/xlink">
    <title>Trees Icon</title>
    <g id="Trees-Icon" stroke="none" stroke-width="1" fill="none" fill-rule="evenodd">
        <path d="M19.4088317,8.09719439 L19.538574,8.1042593 C19.8363258,8.13705536 20.0967252,8.28281563 20.2674789,8.51603206 L20.2674789,8.51603206 L22.5311851,11.5240481 C22.7653616,11.8286573 22.804391,12.247495 22.6092439,12.5901804 C22.4921557,12.7805611 22.336038,12.9328657 22.1408909,13.0470942 L22.1408909,13.0470942 L23.8581853,15.9028056 C24.0533324,16.245491 24.0533324,16.6262525 23.8191558,16.9689379 C23.6630382,17.3116232 23.3117734,17.502004 22.9214793,17.502004 L22.9214793,17.502004 L20.1113612,17.502004 L20.1113612,20.8146293 C20.1113612,21.1953908 19.7991259,21.5 19.4088317,21.5 C19.0185375,21.5 18.7063022,21.1953908 18.7063022,20.8146293 L18.7063022,20.8146293 L18.7063022,17.502004 L15.8571547,17.502004 C15.50589,17.502004 15.1546252,17.2735471 14.9594781,16.9689379 C14.7643311,16.6643287 14.7643311,16.245491 14.9594781,15.9408818 L14.9594781,15.9408818 L16.6767725,13.0470942 C16.4816254,12.9709419 16.3255077,12.7805611 16.2084195,12.5901804 C16.0132724,12.247495 16.0523018,11.8286573 16.2864783,11.5240481 L16.2864783,11.5240481 L18.5501845,8.51603206 C18.7453316,8.249499 19.0575669,8.09719439 19.4088317,8.09719439 L19.4088317,8.09719439 Z M6.45106519,2.5 C6.80232994,2.5 7.11456528,2.65230461 7.30971236,2.91883768 L7.30971236,2.91883768 L10.9784776,7.71643287 C11.2126541,8.02104208 11.2516835,8.43987976 11.0565364,8.78256513 C10.8613893,9.1252505 10.5101246,9.35370741 10.080801,9.35370741 L10.080801,9.35370741 L12.8518896,14.1132265 C13.0470367,14.4178357 13.0470367,14.8366733 12.8518896,15.1412826 C12.6957719,15.4458918 12.3445072,15.6362725 11.954213,15.6362725 L11.954213,15.6362725 L7.19262411,15.6362725 L7.19262411,20.7765531 C7.19262411,21.1573146 6.88038877,21.4619238 6.4900946,21.4619238 C6.09980043,21.4619238 5.78756509,21.1573146 5.78756509,20.7765531 L5.78756509,20.7765531 L5.78756509,15.6362725 L1.06500561,15.6362725 C0.674711436,15.6362725 0.323446681,15.4078156 0.128299595,15.0651303 C-0.0668474908,14.760521 -0.0278180736,14.3416834 0.167329012,14.0370741 L0.167329012,14.0370741 L3.21162356,9.35370741 L2.8603588,9.35370741 C2.47006463,9.35370741 2.11879987,9.1252505 1.92365279,8.78256513 C1.7285057,8.43987976 1.76753512,8.02104208 2.00171162,7.71643287 L2.00171162,7.71643287 L5.59241801,2.91883768 C5.78756509,2.65230461 6.09980043,2.5 6.45106519,2.5 Z M19.3698023,9.62024048 L17.6134785,11.9428858 C17.7695962,12.0190381 17.9257138,12.1713427 18.0037727,12.3236473 C18.1989198,12.6282565 18.1989198,13.0470942 18.0037727,13.3517034 L18.0037727,13.3517034 L16.3645372,16.1312625 L22.3750674,16.1312625 L20.7358319,13.3517034 C20.5406848,13.0470942 20.5406848,12.6282565 20.7358319,12.3236473 C20.8138907,12.1713427 20.9700084,12.0190381 21.1261261,11.9428858 L21.1261261,11.9428858 L19.3698023,9.62024048 Z M6.45106519,4.06112224 L3.44580006,8.05911824 L3.71900598,8.05911824 C4.10930015,8.05911824 4.49959432,8.28757515 4.65571199,8.59218437 C4.81182966,8.89679359 4.81182966,9.31563126 4.61668258,9.62024048 L4.61668258,9.62024048 L1.61141745,14.3036072 L11.3687718,14.3036072 L8.59768313,9.58216433 C8.40253605,9.27755511 8.40253605,8.85871743 8.59768313,8.55410822 C8.79283022,8.28757515 9.10506556,8.05911824 9.45633031,8.05911824 L9.45633031,8.05911824 L6.45106519,4.06112224 Z" id="Combined-Shape" fill="#52503B" fill-rule="nonzero"></path>
    </g>
</svg>