<?xml version="1.0" encoding="UTF-8"?>
<svg width="24px" height="24px" viewBox="0 0 24 24" version="1.1" xmlns="http://www.w3.org/2000/svg" xmlns:xlink="http://www.w3.org/1999/xlink">
    <title>Cutlery Icon</title>
    <g id="Cutlery-Icon" stroke="none" stroke-width="1" fill="none" fill-rule="evenodd">
        <path d="M17.7421875,0 C20.046875,0 21.9609375,1.87317073 22,4.25365854 L22,4.25365854 L22,12.6439024 C22,13.3463415 21.453125,13.8926829 20.75,13.8926829 L20.75,13.8926829 L19.9296875,13.8926829 L19.9296875,22.204878 C19.9296875,23.1804878 19.109375,24 18.1328125,24 L18.1328125,24 L17,24 C16.0234375,24 15.203125,23.1804878 15.203125,22.204878 L15.203125,22.204878 L15.203125,1.24878049 C15.203125,0.546341463 15.75,0 16.453125,0 L16.453125,0 Z M6.21875,0.0390243902 C6.609375,0.0390243902 6.921875,0.351219512 6.921875,0.741463415 L6.921875,0.741463415 L6.921875,6.71219512 L9.109375,6.71219512 L9.109375,0.780487805 C9.109375,0.390243902 9.421875,0.0780487805 9.8125,0.0780487805 C10.203125,0.0780487805 10.4765625,0.390243902 10.515625,0.741463415 L10.515625,0.741463415 L10.515625,10.7317073 C10.515625,11.3170732 10.0859375,11.7463415 9.5,11.7463415 L9.5,11.7463415 L8.6015625,11.7463415 L8.6015625,22.1658537 C8.6015625,23.1414634 7.78125,23.9609756 6.8046875,23.9609756 L6.8046875,23.9609756 L5.7109375,23.9609756 C4.734375,23.9609756 3.9140625,23.1414634 3.9140625,22.1658537 L3.9140625,22.1658537 L3.9140625,11.7073171 L3.015625,11.7073171 C2.4296875,11.7073171 2,11.2780488 2,10.6926829 L2,10.6926829 L2,0.741463415 C2,0.390243902 2.2734375,0.0390243902 2.6640625,0.0390243902 C3.0546875,0.0390243902 3.3671875,0.351219512 3.3671875,0.741463415 L3.3671875,0.741463415 L3.3671875,6.67317073 L5.515625,6.67317073 L5.515625,0.741463415 C5.515625,0.351219512 5.828125,0.0390243902 6.21875,0.0390243902 Z M18.5625,13.8926829 L16.5703125,13.8926829 L16.5703125,22.204878 C16.5703125,22.4390244 16.765625,22.6341463 17,22.6341463 L17,22.6341463 L18.1328125,22.6341463 C18.3671875,22.6341463 18.5625,22.4 18.5625,22.1658537 L18.5625,22.1658537 L18.5625,13.8926829 Z M7.234375,11.7463415 L5.28125,11.7463415 L5.28125,22.204878 C5.28125,22.4390244 5.4765625,22.6341463 5.7109375,22.6341463 L5.7109375,22.6341463 L6.8046875,22.6341463 C7.0390625,22.6341463 7.234375,22.4390244 7.234375,22.204878 L7.234375,22.204878 L7.234375,11.7463415 Z M17.703125,1.36585366 L16.53125,1.36585366 L16.53125,12.5268293 L20.59375,12.5268293 L20.59375,4.25365854 C20.59375,2.65365854 19.3046875,1.36585366 17.703125,1.36585366 L17.703125,1.36585366 Z M9.1484375,8.03902439 L3.3671875,8.03902439 L3.3671875,10.3804878 L9.1484375,10.3804878 L9.1484375,8.03902439 Z" id="Combined-Shape" fill="#52503B" fill-rule="nonzero"></path>
    </g>
</svg>