<?xml version="1.0" encoding="UTF-8"?>
<svg width="24px" height="24px" viewBox="0 0 24 24" version="1.1" xmlns="http://www.w3.org/2000/svg" xmlns:xlink="http://www.w3.org/1999/xlink">
    <title>Hanger Icon</title>
    <g id="Hanger-Icon" stroke="none" stroke-width="1" fill="none" fill-rule="evenodd">
        <path d="M20.8349515,16.012987 L13.7669903,12.3116883 C13.8446602,12.0779221 13.7669903,11.7662338 13.5339806,11.6103896 C13.2621359,11.3766234 12.8349515,11.4155844 12.5631068,11.6883117 C12.4854369,11.8051948 12.1747573,11.8831169 11.8252427,11.8051948 C11.5145631,11.7272727 11.3203883,11.4935065 11.2815534,11.1428571 C11.2427184,10.6363636 11.4757282,10.2857143 12.0582524,10.0519481 C12.4466019,9.8961039 12.7184466,9.50649351 12.6796117,9.07792208 L12.6796117,6.54545455 C14.1553398,6.23376623 15.2427184,4.90909091 15.2427184,3.31168831 C15.2427184,1.48051948 13.7669903,0 11.9417476,0 C10.1165049,0 8.6407767,1.48051948 8.6407767,3.31168831 C8.6407767,4.90909091 9.76699029,6.23376623 11.2815534,6.54545455 L11.3203883,8.84415584 C10.3495146,9.35064935 9.80582524,10.2077922 9.9223301,11.2597403 C9.96116505,11.6493506 10.0776699,11.961039 10.2718447,12.2727273 L3.16504854,16.012987 C2.58252427,16.2857143 2.19417476,16.8311688 2.03883495,17.4545455 C2.03883495,17.4545455 2.03883495,17.4545455 2.03883495,17.4935065 C2,17.6493506 2,17.8051948 2,17.961039 L2,21.8181818 C2,23.025974 2.97087379,24 4.17475728,24 L19.8252427,24 C21.0291262,24 22,23.025974 22,21.8181818 L22,17.961039 C22,17.1038961 21.5339806,16.3636364 20.8349515,16.012987 Z M10.038835,3.31168831 C10.038835,2.22077922 10.8932039,1.36363636 11.9805825,1.36363636 C13.0679612,1.36363636 13.9223301,2.22077922 13.9223301,3.31168831 C13.9223301,4.4025974 13.0679612,5.25974026 11.9805825,5.25974026 C10.8932039,5.25974026 10.038835,4.4025974 10.038835,3.31168831 Z M11.5533981,13.1688312 C11.5533981,13.1688312 11.592233,13.1298701 11.592233,13.1298701 C11.7864078,13.1688312 11.9417476,13.2077922 12.1359223,13.2077922 C12.2524272,13.2077922 12.368932,13.2077922 12.4854369,13.1688312 L19.631068,16.9090909 L4.36893204,16.9090909 L11.5533981,13.1688312 Z M19.8252427,22.6363636 L4.13592233,22.6363636 C3.66990291,22.6363636 3.32038835,22.2467532 3.32038835,21.8181818 L3.32038835,18.3116883 L20.6407767,18.3116883 L20.6407767,21.8181818 C20.6407767,22.2467532 20.2524272,22.6363636 19.8252427,22.6363636 Z" id="Shape" fill="#52503B" fill-rule="nonzero"></path>
    </g>
</svg>