<?xml version="1.0" encoding="UTF-8"?>
<svg width="24px" height="24px" viewBox="0 0 24 24" version="1.1" xmlns="http://www.w3.org/2000/svg" xmlns:xlink="http://www.w3.org/1999/xlink">
    <title>Coffee Maker Icon</title>
    <g id="Coffee-Maker-Icon" stroke="none" stroke-width="1" fill="none" fill-rule="evenodd">
        <path d="M21.1401088,0 L7.06552032,0 C5.72882756,0 4.66733625,1.05194805 4.66733625,2.37662338 L4.66733625,4.24675325 C4.66733625,5.33766234 5.37499712,6.23376623 6.39717394,6.50649351 L6.39717394,8.06493506 C6.39717394,8.45454545 6.71168988,8.76623377 7.10483481,8.76623377 C7.49797974,8.76623377 7.81249568,8.45454545 7.81249568,8.06493506 L7.81249568,6.62337662 L15.8719667,6.62337662 C16.4223696,6.62337662 16.8941435,7.09090909 16.8941435,7.63636364 L16.8941435,16.3636364 C16.8941435,16.9090909 16.4223696,17.3766234 15.8719667,17.3766234 L9.50301888,17.3766234 C10.5645102,16.5584416 11.2328566,15.2727273 11.2328566,13.8701299 C11.2328566,13.4805195 10.9183406,13.1688312 10.5251957,13.1688312 L2.85886958,13.1688312 C2.46572465,13.1688312 2.1512087,13.4805195 2.1512087,13.8701299 C2.1512087,15.2727273 2.81955508,16.5584416 3.88104639,17.3766234 L2.89818407,17.3766234 C1.56149131,17.3766234 0.5,18.4285714 0.5,19.7532468 L0.5,21.6233766 C0.5,22.9480519 1.56149131,24 2.89818407,24 L21.1007943,24 C22.437487,24 23.4989784,22.9480519 23.4989784,21.6233766 L23.4989784,2.37662338 C23.5382929,1.09090909 22.437487,0 21.1401088,0 Z M9.73890584,14.5324675 C9.42438989,15.9350649 8.16632612,16.9480519 6.67237539,16.9480519 C5.17842466,16.9480519 3.92036088,15.8961039 3.60584494,14.5324675 L9.73890584,14.5324675 Z M22.1622856,21.6233766 C22.1622856,22.1688312 21.6905117,22.6363636 21.1401088,22.6363636 L2.89818407,22.6363636 C2.34778117,22.6363636 1.87600725,22.1688312 1.87600725,21.6233766 L1.87600725,19.7532468 C1.87600725,19.2077922 2.34778117,18.7402597 2.89818407,18.7402597 L15.7933377,18.7402597 C17.1300305,18.7402597 18.1915218,17.6883117 18.1915218,16.3636364 L18.1915218,7.63636364 C18.1915218,6.31168831 17.1300305,5.25974026 15.7933377,5.25974026 L7.06552032,5.25974026 C6.51511742,5.25974026 6.0433435,4.79220779 6.0433435,4.24675325 L6.0433435,2.37662338 C6.0433435,1.83116883 6.51511742,1.36363636 7.06552032,1.36363636 L21.1007943,1.36363636 C21.6511972,1.36363636 22.1229711,1.83116883 22.1229711,2.37662338 L22.1229711,21.6233766 L22.1622856,21.6233766 Z" id="Shape" fill="#52503B" fill-rule="nonzero"></path>
    </g>
</svg>