<?xml version="1.0" encoding="UTF-8"?>
<svg width="24px" height="24px" viewBox="0 0 24 24" version="1.1" xmlns="http://www.w3.org/2000/svg" xmlns:xlink="http://www.w3.org/1999/xlink">
    <title>Door Icon</title>
    <g id="Door-Icon" stroke="none" stroke-width="1" fill="none" fill-rule="evenodd">
        <path d="M18.2641723,0 C19.4591837,0 20.4614512,0.975609756 20.5,2.22439024 L20.5,2.22439024 L20.5,21.7365854 C20.5,22.9853659 19.4977324,24 18.2641723,24 L18.2641723,24 L5.73582766,24 C4.50226757,24 3.5,22.9853659 3.5,21.7365854 L3.5,21.7365854 L3.5,2.22439024 C3.5,0.975609756 4.50226757,0 5.69727891,0 L5.69727891,0 Z M18.2256236,1.32682927 L5.69727891,1.32682927 C5.19614512,1.32682927 4.8106576,1.75609756 4.8106576,2.22439024 L4.8106576,2.22439024 L4.8106576,21.7365854 C4.8106576,22.2439024 5.23469388,22.6341463 5.69727891,22.6341463 L5.69727891,22.6341463 L18.2256236,22.6341463 C18.7267574,22.6341463 19.1122449,22.204878 19.1122449,21.7365854 L19.1122449,21.7365854 L19.1122449,2.22439024 C19.1122449,1.71707317 18.6882086,1.32682927 18.2256236,1.32682927 L18.2256236,1.32682927 Z M16.1825397,10.4195122 C16.8764172,10.4195122 17.4931973,11.004878 17.4931973,11.7463415 C17.4931973,12.4878049 16.914966,13.0731707 16.1825397,13.0731707 C15.4501134,13.0731707 14.8718821,12.4878049 14.8718821,11.7463415 C14.8718821,11.004878 15.4501134,10.4195122 16.1825397,10.4195122 Z" id="Combined-Shape" fill="#52503B" fill-rule="nonzero"></path>
    </g>
</svg>