<?xml version="1.0" encoding="UTF-8"?>
<svg width="24px" height="24px" viewBox="0 0 24 24" version="1.1" xmlns="http://www.w3.org/2000/svg" xmlns:xlink="http://www.w3.org/1999/xlink">
    <title>Glass Icon</title>
    <g id="Glass-Icon" stroke="none" stroke-width="1" fill="none" fill-rule="evenodd">
        <path d="M17.4917506,15.987034 C18.8885049,14.5089141 19.6068357,12.5251216 19.4871139,10.5024311 L18.8485976,2.13938412 C18.7687831,0.933549433 17.7311942,0 16.4940689,0 L7.51493401,0 C6.27780876,0 5.24021984,0.933549433 5.1604053,2.13938412 L4.52188904,10.5024311 C4.36225998,12.5251216 5.08059077,14.5089141 6.51725236,15.987034 C7.75437761,17.3095624 9.47039006,18.1264182 11.3061243,18.2820097 L11.3061243,22.5996759 L8.19335754,22.5996759 C7.79428488,22.5996759 7.47502675,22.910859 7.47502675,23.2998379 C7.47502675,23.6888169 7.79428488,24 8.19335754,24 L15.8156454,24 C16.2147181,24 16.5339762,23.6888169 16.5339762,23.2998379 C16.5339762,22.910859 16.2147181,22.5996759 15.8156454,22.5996759 L12.7028786,22.5996759 L12.7028786,18.2820097 C14.5386129,18.1264182 16.2546253,17.3095624 17.4917506,15.987034 Z M7.51493401,1.36142626 L16.4940689,1.36142626 C16.9729561,1.36142626 17.411936,1.75040519 17.4518433,2.2171799 L17.7311942,5.71799028 L6.31771602,5.71799028 L6.59706689,2.2171799 C6.59706689,1.75040519 7.03604682,1.36142626 7.51493401,1.36142626 Z M5.95855063,10.5802269 L6.19799423,7.11831442 L17.8110087,7.11831442 L18.0504523,10.5802269 C18.1701741,12.2528363 17.6114724,13.808752 16.4541617,15.0534846 C15.2968509,16.2593193 13.7005603,16.9594814 11.9845478,16.9594814 C10.2685354,16.9594814 8.712152,16.2982172 7.51493401,15.0534846 C6.39753056,13.8476499 5.83882883,12.2528363 5.95855063,10.5802269 Z" id="Shape" fill="#52503B" fill-rule="nonzero"></path>
    </g>
</svg>