<?xml version="1.0" encoding="UTF-8"?>
<svg width="24px" height="24px" viewBox="0 0 24 24" version="1.1" xmlns="http://www.w3.org/2000/svg" xmlns:xlink="http://www.w3.org/1999/xlink">
    <title>Bath Tub Icon</title>
    <g id="Bath-Tub-Icon" stroke="none" stroke-width="1" fill="none" fill-rule="evenodd">
        <path d="M23.2987013,10.9316547 L21.6623377,10.9316547 L4.5974026,10.9316547 L4.5974026,3.33453237 C4.5974026,2.82014388 4.98701299,2.42446043 5.49350649,2.42446043 L8.49350649,2.42446043 L8.49350649,3.57194245 C7.67532468,3.69064748 7.01298701,4.4028777 7.01298701,5.27338129 L7.01298701,7.01438849 C7.01298701,7.41007194 7.32467532,7.72661871 7.71428571,7.72661871 L10.4805195,7.72661871 C10.8701299,7.72661871 11.1818182,7.41007194 11.1818182,7.01438849 L11.1818182,5.27338129 C11.1818182,4.48201439 10.6363636,3.80935252 9.8961039,3.61151079 L9.8961039,1.71223022 C9.8961039,1.31654676 9.58441558,1 9.19480519,1 L5.49350649,1 C4.24675325,1 3.23376623,2.02877698 3.23376623,3.29496403 L3.23376623,10.8920863 L2.61038961,10.8920863 L2.33766234,10.8920863 L0.701298701,10.8920863 C0.311688312,10.8920863 0,11.2086331 0,11.6043165 C0,12 0.311688312,12.3165468 0.701298701,12.3165468 L1.63636364,12.3165468 L1.63636364,15.4820144 C1.63636364,17.8165468 3.35064935,19.7553957 5.57142857,20.0719424 L4.71428571,22.0107914 C4.55844156,22.3669065 4.71428571,22.7625899 5.06493506,22.9208633 C5.14285714,22.9604317 5.25974026,23 5.33766234,23 C5.61038961,23 5.84415584,22.8417266 5.96103896,22.6043165 L7.05194805,20.1510791 L17.7662338,20.1510791 C17.8441558,20.1510791 17.9220779,20.1510791 18.038961,20.1510791 L19.1298701,22.6043165 C19.2467532,22.881295 19.4805195,23 19.7532468,23 C19.8311688,23 19.9480519,23 20.025974,22.9208633 C20.3766234,22.7625899 20.5324675,22.3669065 20.3766234,22.0107914 L19.4025974,19.8345324 C21.1168831,19.1618705 22.3636364,17.4604317 22.3636364,15.4820144 L22.3636364,12.3165468 L23.2987013,12.3165468 C23.6883117,12.3165468 24,12 24,11.6043165 C24,11.2482014 23.6883117,10.9316547 23.2987013,10.9316547 Z M9.77922078,6.34172662 L8.37662338,6.34172662 L8.37662338,5.27338129 C8.37662338,5.07553957 8.53246753,4.91726619 8.72727273,4.91726619 L9.42857143,4.91726619 C9.62337662,4.91726619 9.77922078,5.07553957 9.77922078,5.27338129 L9.77922078,6.34172662 L9.77922078,6.34172662 Z M21,15.4820144 C21,17.2625899 19.5584416,18.7661871 17.7662338,18.7661871 L6.23376623,18.7661871 C4.48051948,18.7661871 3,17.3021583 3,15.4820144 L3,12.3165468 L21,12.3165468 L21,15.4820144 Z" id="Shape" fill="#52503B" fill-rule="nonzero"></path>
    </g>
</svg>