<?xml version="1.0" encoding="UTF-8"?>
<svg width="24px" height="24px" viewBox="0 0 24 24" version="1.1" xmlns="http://www.w3.org/2000/svg" xmlns:xlink="http://www.w3.org/1999/xlink">
    <title>Bread Icon</title>
    <g id="Bread-Icon" stroke="none" stroke-width="1" fill="none" fill-rule="evenodd">
        <path d="M12.0192992,7 C5.30722302,7 0,9.82258065 0,13.3709677 C0,13.6935484 0.0390236987,14.0564516 0.156094795,14.4193548 C0.390236987,15.1451613 0.936568768,15.7096774 1.67801904,15.9516129 C3.66822767,16.5967742 7.60962124,17 11.9802755,17 C16.3509297,17 20.2923233,16.5967742 22.2825319,15.9516129 C23.0239822,15.7096774 23.570314,15.1451613 23.8044562,14.4596774 L23.8434799,14.3790323 C23.9215273,14.016129 23.9997885,13.6935484 23.9997885,13.3709677 C24.0385984,9.78225806 18.7313754,7 12.0192992,7 Z M22.5947215,13.9758065 L22.5947215,14.016129 C22.5166741,14.2983871 22.2825319,14.5403226 21.9703423,14.6209677 C20.0972048,15.2258065 16.1948349,15.5887097 12.0192992,15.5887097 C7.84376343,15.5887097 3.94139357,15.1854839 2.10727973,14.6209677 C1.79509014,14.5 1.56094795,14.2983871 1.48290055,14.016129 C1.40485315,13.8145161 1.40485315,13.5725806 1.40485315,13.3709677 C1.40485315,11.9596774 2.77068261,10.6290323 4.91698603,9.7016129 C5.30722302,11.4354839 6.51695768,12.6854839 7.96083453,12.6854839 C8.35107151,12.6854839 8.6632611,12.3629032 8.6632611,11.9596774 C8.6632611,11.5564516 8.35107151,11.233871 7.96083453,11.233871 C7.14133686,11.233871 6.39988658,10.3870968 6.20476809,9.17741935 C7.37547905,8.81451613 8.7413085,8.53225806 10.1461617,8.41129032 C10.3803038,10.3870968 11.5510148,12.6451613 13.2680575,12.6451613 C13.6582945,12.6451613 13.9704841,12.3225806 13.9704841,11.9193548 C13.9704841,11.516129 13.6582945,11.1935484 13.2680575,11.1935484 C12.5266073,11.1935484 11.7071096,9.78225806 11.5119911,8.29032258 C11.6680859,8.29032258 11.8632044,8.29032258 12.0192992,8.29032258 C13.1900101,8.29032258 14.3607211,8.37096774 15.414361,8.57258065 C15.4924084,10.7903226 16.8972615,12.6048387 18.5752806,12.6048387 C18.9655176,12.6048387 19.2777071,12.2822581 19.2777071,11.8790323 C19.2777071,11.4758065 18.9655176,11.1532258 18.5752806,11.1532258 C17.6777355,11.1532258 16.9362852,10.1048387 16.7801904,8.81451613 C20.2142759,9.66129032 22.6337452,11.3548387 22.6337452,13.25 C22.6727689,13.5725806 22.6337452,13.7741935 22.5947215,13.9758065 Z" id="Shape" fill="#52503B" fill-rule="nonzero"></path>
    </g>
</svg>