<?xml version="1.0" encoding="UTF-8"?>
<svg width="24px" height="24px" viewBox="0 0 24 24" version="1.1" xmlns="http://www.w3.org/2000/svg" xmlns:xlink="http://www.w3.org/1999/xlink">
    <title>Briefcase Icon</title>
    <g id="Briefcase-Icon" stroke="none" stroke-width="1" fill="none" fill-rule="evenodd">
        <path d="M20.961039,5.10301954 L16.7922078,5.10301954 L16.7922078,3.73534636 C16.7922078,2.21136767 15.5454545,1 14.0649351,1 L9.93506494,1 C8.41558442,1 7.20779221,2.25044405 7.20779221,3.73534636 L7.20779221,5.10301954 L3.03896104,5.10301954 C1.36363636,5.10301954 0,6.47069272 0,8.15097691 L0,11.9804618 C0,12.3712256 0.311688312,12.6838366 0.701298701,12.6838366 L1.05194805,12.6838366 L1.05194805,20.1083481 C1.05194805,21.7104796 2.33766234,23 3.93506494,23 L20.0649351,23 C21.6623377,23 22.9480519,21.7104796 22.9480519,20.1083481 L22.9480519,12.6838366 L23.2987013,12.6838366 C23.6883117,12.6838366 24,12.3712256 24,11.9804618 L24,8.15097691 C24,6.47069272 22.6363636,5.10301954 20.961039,5.10301954 Z M8.57142857,3.73534636 C8.57142857,2.9928952 9.19480519,2.36767318 9.93506494,2.36767318 L14.025974,2.36767318 C14.7662338,2.36767318 15.3896104,2.9928952 15.3896104,3.73534636 L15.3896104,5.10301954 L8.57142857,5.10301954 L8.57142857,3.73534636 Z M1.4025974,8.15097691 C1.4025974,7.25222025 2.14285714,6.47069272 3.07792208,6.47069272 L21,6.47069272 C21.8961039,6.47069272 22.6753247,7.21314387 22.6753247,8.15097691 L22.6753247,11.3161634 L1.4025974,11.3161634 L1.4025974,8.15097691 Z M21.5844156,20.0692718 C21.5844156,20.928952 20.8831169,21.5932504 20.0649351,21.5932504 L3.93506494,21.5932504 C3.07792208,21.5932504 2.41558442,20.8898757 2.41558442,20.0692718 L2.41558442,12.6447602 L7.20779221,12.6447602 L7.20779221,15.0674956 C7.20779221,15.4582593 7.51948052,15.7708703 7.90909091,15.7708703 C8.2987013,15.7708703 8.61038961,15.4582593 8.61038961,15.0674956 L8.61038961,12.6447602 L15.4675325,12.6447602 L15.4675325,15.0674956 C15.4675325,15.4582593 15.7792208,15.7708703 16.1688312,15.7708703 C16.5584416,15.7708703 16.8701299,15.4582593 16.8701299,15.0674956 L16.8701299,12.6447602 L21.6623377,12.6447602 L21.6623377,20.0692718 L21.5844156,20.0692718 Z" id="Shape" fill="#52503B" fill-rule="nonzero"></path>
    </g>
</svg>