<?xml version="1.0" encoding="UTF-8"?>
<svg width="24px" height="24px" viewBox="0 0 24 24" version="1.1" xmlns="http://www.w3.org/2000/svg" xmlns:xlink="http://www.w3.org/1999/xlink">
    <title>Airbnb Icon</title>
    <g id="Airbnb-Icon" stroke="none" stroke-width="1" fill="none" fill-rule="evenodd">
        <path d="M12.0298293,18.2706151 C10.6968272,16.5674222 9.93511178,15.0964828 9.66851137,13.7803792 C8.48785243,9.01918076 15.6098919,9.01918076 14.4292329,13.7803792 C14.1245467,15.0964828 13.3247455,16.64484 12.0298293,18.2706151 L12.0298293,18.2706151 Z M19.266126,22.1802171 C17.0571512,23.1479403 14.8481764,21.5995831 12.9819736,19.5093009 C18.4663248,12.5416934 15.4575488,8.74821825 12.0298293,8.74821825 C9.13531056,8.74821825 7.53570812,11.1868809 8.18316625,14.1287596 C8.56402398,15.7158257 9.51616828,17.4577276 11.077685,19.4705919 C9.3638252,21.3673295 7.91656585,22.2963438 6.58356381,22.4124706 C3.95564552,22.8382689 1.89901382,20.2447705 2.8892439,17.5738544 C3.68904512,15.4835721 8.79253861,5.18699666 9.02105324,4.64507163 C9.82085446,3.01929656 10.3540553,1.58706614 12.1440866,1.58706614 C13.8579463,1.58706614 14.4673187,2.9418787 15.3052057,4.79990736 C17.2475801,8.55467359 20.0278415,14.2835953 21.3608435,17.5738544 C21.9321301,19.3157562 21.2085004,21.3673295 19.266126,22.1802171 L19.266126,22.1802171 Z M21.779787,14.9029382 C14.9624337,0.232253582 14.581576,0 12.0298293,0 C9.6304256,0 8.60210975,1.70319293 7.5737939,3.87089303 C1.93709959,15.2900275 1.44198455,16.8383847 1.32772723,17.0319293 C0.032810971,20.7479866 2.77498658,23.9995368 6.050363,23.9995368 C7.19293617,23.9995368 9.28765365,23.6898653 11.9917435,20.6705688 C15.1147768,24.1156636 17.3618374,23.9995368 17.933124,23.9995368 C21.2465862,23.9995368 23.9887618,20.7092777 22.6557597,17.0319293 C22.6938455,16.7996757 21.779787,14.9416471 21.779787,14.9029382 L21.779787,14.9029382 Z" id="Shape" fill="#FFFFFF" fill-rule="nonzero"></path>
    </g>
</svg>