<?xml version="1.0" encoding="UTF-8"?>
<svg width="24px" height="24px" viewBox="0 0 24 24" version="1.1" xmlns="http://www.w3.org/2000/svg" xmlns:xlink="http://www.w3.org/1999/xlink">
    <title>Pizza Icon</title>
    <g id="Pizza-Icon" stroke="none" stroke-width="1" fill="none" fill-rule="evenodd">
        <path d="M23.9084752,13.7814595 C23.0495449,11.051315 21.0974306,8.08715824 18.4815973,5.47402 C15.9048064,2.86088177 12.9375926,0.949780679 10.2046325,0.0917352898 C9.22857534,-0.220281215 8.13539131,0.286745606 7.78401072,1.26179718 L0.131722486,21.3478597 C-0.141573522,22.0888989 0.0145956257,22.8689402 0.561187643,23.4149691 C0.951610512,23.8049897 1.42011795,24 1.92766768,24 C2.16192141,24 2.39617513,23.9609979 2.63042885,23.8829938 L14.3821572,19.3977565 C14.3821572,19.3977565 14.3821572,19.3977565 14.3821572,19.3977565 L14.3821572,19.3977565 C14.4211995,19.3977565 14.4211995,19.3977565 14.4602418,19.3587545 L15.8657641,18.8127256 C15.8657641,18.8127256 15.8657641,18.8127256 15.8657641,18.8127256 L22.6981643,16.1995874 C23.7132638,15.8485688 24.2208135,14.756511 23.9084752,13.7814595 Z M2.16192141,22.5569237 C1.84958311,22.6739299 1.61532939,22.4789195 1.53724482,22.4399175 C1.45916024,22.3619133 1.26394881,22.166903 1.42011795,21.8158845 L3.05989401,17.5256575 C3.45031687,18.3837029 4.2702049,18.9687339 5.28530436,18.9687339 C6.61274212,18.9687339 7.70592615,17.8766761 7.70592615,16.5506059 C7.70592615,15.2245358 6.61274212,14.132478 5.28530436,14.132478 C4.93392378,14.132478 4.5825432,14.2104821 4.2702049,14.3664904 L7.31550328,6.33206539 C7.82305301,6.6440819 8.33060274,6.9560984 8.83815247,7.34611904 C8.21347588,7.77514173 7.82305301,8.51618093 7.82305301,9.29622219 C7.82305301,10.6222923 8.91623704,11.7143501 10.2436748,11.7143501 C11.2587743,11.7143501 12.1177046,11.0903171 12.4690852,10.2322717 C14.3431149,11.9873646 16.1781024,14.093476 17.7397939,16.6676121 L16.802779,17.0186307 C16.802779,17.0186307 16.802779,17.0186307 16.802779,17.0186307 C16.802779,15.6925605 15.709595,14.6005028 14.3821572,14.6005028 C13.0547195,14.6005028 11.9615354,15.6925605 11.9615354,17.0186307 C11.9615354,17.6426637 12.1957891,18.1886926 12.586212,18.6177153 L2.16192141,22.5569237 Z M4.19212033,16.5506059 C4.19212033,15.965575 4.66062777,15.4975502 5.24626207,15.4975502 C5.83189638,15.4975502 6.30040382,15.965575 6.30040382,16.5506059 C6.30040382,17.1356369 5.83189638,17.6036616 5.24626207,17.6036616 C4.66062777,17.6036616 4.19212033,17.1356369 4.19212033,16.5506059 Z M11.2978165,9.21821807 C11.2978165,9.25722013 11.2978165,9.25722013 11.2978165,9.29622219 C11.2978165,9.88125314 10.8293091,10.3492779 10.2436748,10.3492779 C9.6580405,10.3492779 9.18953305,9.88125314 9.18953305,9.29622219 C9.18953305,8.75019331 9.57995592,8.32117061 10.1265479,8.24316649 C10.5169708,8.55518299 10.9073937,8.8671995 11.2978165,9.21821807 Z M14.1088612,18.0326843 C13.6403538,17.9156781 13.2889732,17.4866555 13.2889732,17.0186307 C13.2889732,16.4335997 13.7574806,15.965575 14.3431149,15.965575 C14.9287492,15.965575 15.3972567,16.4335997 15.3972567,17.0186307 C15.3972567,17.2526431 15.3191721,17.4476534 15.2020452,17.6036616 L14.1088612,18.0326843 Z M22.2686992,14.9125193 L19.0281894,16.1605853 C17.1151173,12.9234141 14.7335378,10.3492779 12.4300429,8.36017268 C12.3910006,8.36017268 12.3910006,8.32117061 12.3519583,8.32117061 C11.8053663,7.85314586 11.2587743,7.42412316 10.7121822,7.03410253 C10.7121822,7.03410253 10.67314,6.99510047 10.67314,6.99510047 C9.6580405,6.25406127 8.68198332,5.59102619 7.78401072,5.04499731 L9.0333639,1.72982194 C9.11144848,1.49580956 9.3457022,1.33980131 9.57995592,1.33980131 C9.6580405,1.33980131 9.69708278,1.33980131 9.77516736,1.37880337 C12.2738737,2.15884464 15.0849184,4.03094367 17.5055402,6.44907158 C19.926162,8.8671995 21.8001917,11.7143501 22.5810375,14.2104821 C22.6981643,14.4834966 22.5419952,14.7955131 22.2686992,14.9125193 Z" id="Shape" fill="#52503B" fill-rule="nonzero"></path>
    </g>
</svg>