<?xml version="1.0" encoding="UTF-8"?>
<svg width="24px" height="24px" viewBox="0 0 24 24" version="1.1" xmlns="http://www.w3.org/2000/svg" xmlns:xlink="http://www.w3.org/1999/xlink">
    <title>Air Conditioner Icon</title>
    <g id="Air-Conditioner-Icon" stroke="none" stroke-width="1" fill="none" fill-rule="evenodd">
        <path d="M22.1298701,6 C23.1428571,6 24,6.84 24,7.88 L24,7.88 L24,16.08 C24,17.16 23.1428571,18 22.1298701,18 L22.1298701,18 L1.87012987,18 C0.857142857,18 0.038961039,17.16 0,16.16 L0,16.16 L0,7.92 C0,6.84 0.857142857,6 1.87012987,6 L1.87012987,6 Z M11.3376623,14.16 L7.05194805,14.16 L7.05194805,16.6 L11.3376623,16.6 L11.3376623,14.16 Z M16.987013,14.16 L12.7012987,14.16 L12.7012987,16.6 L16.987013,16.6 L16.987013,14.16 Z M5.68831169,14.16 L1.4025974,14.16 L1.4025974,16.12 C1.4025974,16.4 1.5974026,16.6 1.87012987,16.6 L1.87012987,16.6 L5.68831169,16.6 L5.68831169,14.16 Z M22.5974026,14.16 L18.3116883,14.16 L18.3116883,16.6 L22.1298701,16.6 C22.4025974,16.6 22.6363636,16.4 22.5974026,16.12 L22.5974026,16.12 L22.5974026,14.16 Z M22.1298701,7.4 L1.87012987,7.4 C1.5974026,7.4 1.4025974,7.6 1.4025974,7.88 L1.4025974,7.88 L1.4025974,12.8 L22.6363636,12.8 L22.6363636,7.92 C22.6363636,7.64 22.4025974,7.4 22.1298701,7.4 L22.1298701,7.4 Z M19.8311688,9.32 C20.2207792,9.32 20.5324675,9.64 20.5324675,10.04 C20.5324675,10.44 20.2207792,10.76 19.8311688,10.76 L19.8311688,10.76 L17.3376623,10.76 C16.9480519,10.76 16.6363636,10.44 16.6363636,10.04 C16.6363636,9.64 16.9480519,9.32 17.3376623,9.32 L17.3376623,9.32 Z" id="Combined-Shape" fill="#52503B" fill-rule="nonzero"></path>
    </g>
</svg>