<?xml version="1.0" encoding="UTF-8"?>
<svg width="24px" height="24px" viewBox="0 0 24 24" version="1.1" xmlns="http://www.w3.org/2000/svg" xmlns:xlink="http://www.w3.org/1999/xlink">
    <title>Star Outline Icon</title>
    <g id="Star-Outline-Icon" stroke="none" stroke-width="1" fill="none" fill-rule="evenodd">
        <path d="M23.9095342,9.04 C23.7495342,8.56 23.3495342,8.2 22.8695342,8.12 L16.1895342,7.08 L13.1895342,0.76 C12.9495342,0.28 12.5095342,0 11.9895342,0 C11.9895342,0 11.9895342,0 11.9895342,0 C11.4695342,0 11.0295342,0.28 10.8295342,0.76 L7.82953416,7.12 L1.10953416,8.2 C0.629534157,8.28 0.229534157,8.64 0.069534157,9.12 C-0.090465843,9.6 0.029534157,10.16 0.389534157,10.52 L5.22953416,15.48 L4.10953416,22.4 C4.02953416,22.92 4.22953416,23.44 4.66953416,23.76 C4.90953416,23.92 5.14953416,24 5.38953416,24 C5.58953416,24 5.82953416,23.96 5.98953416,23.84 L11.9895342,20.56 L17.9495342,23.8 C18.3895342,24.04 18.9095342,24 19.3095342,23.72 C19.7495342,23.4 19.9495342,22.88 19.8695342,22.36 L18.7495342,15.4 L23.5895342,10.44 C23.9495342,10.08 24.0695342,9.52 23.9095342,9.04 Z M22.9895342,9.88 L18.1895342,14.84 C18.0295342,15 17.9495342,15.28 17.9895342,15.52 L19.1095342,22.48 C19.1495342,22.76 19.0295342,22.96 18.8695342,23.04 C18.7895342,23.08 18.5895342,23.2 18.3495342,23.08 L12.3495342,19.84 C12.1095342,19.72 11.8695342,19.72 11.6295342,19.84 L5.62953416,23.12 C5.38953416,23.24 5.18953416,23.16 5.10953416,23.08 C4.98953416,23 4.82953416,22.76 4.86953416,22.52 L6.02953416,15.6 C6.06953416,15.36 5.98953416,15.08 5.82953416,14.92 L0.989534157,9.96 L0.989534157,9.96 C0.789534157,9.76 0.789534157,9.52 0.829534157,9.36 C0.909534157,9.16 1.02953416,9.04 1.22953416,9 L7.94953416,7.92 C8.18953416,7.88 8.42953416,7.72 8.50953416,7.48 L11.5095342,1.12 C11.6295342,0.92 11.7895342,0.8 11.9895342,0.8 C11.9895342,0.8 11.9895342,0.8 11.9895342,0.8 C12.1895342,0.8 12.3495342,0.92 12.4295342,1.12 L15.4295342,7.48 C15.5495342,7.72 15.7495342,7.88 15.9895342,7.92 L22.6695342,8.96 C22.8695342,9 23.0295342,9.12 23.0695342,9.32 C23.1895342,9.44 23.1895342,9.72 22.9895342,9.88 Z" id="Shape" fill="#52503B" fill-rule="nonzero"></path>
    </g>
</svg>