<?xml version="1.0" encoding="UTF-8"?>
<svg width="24px" height="24px" viewBox="0 0 24 24" version="1.1" xmlns="http://www.w3.org/2000/svg" xmlns:xlink="http://www.w3.org/1999/xlink">
    <title>Wi-Fi Icon</title>
    <g id="Wi-Fi-Icon" stroke="none" stroke-width="1" fill="none" fill-rule="evenodd">
        <path d="M20.9803922,17.5470588 C22.6666667,17.5470588 24,18.9 24,20.5235294 C24,22.1470588 22.627451,23.5 20.9803922,23.5 C19.3333333,23.5 17.9607843,22.1470588 17.9607843,20.5235294 C17.9607843,18.9 19.3333333,17.5470588 20.9803922,17.5470588 Z M22.0784314,0.5 C22.4705882,0.5 22.7843137,0.809243697 22.7843137,1.19579832 C22.7843137,1.58235294 22.4705882,1.89159664 22.0784314,1.89159664 C10.6666667,1.89159664 1.37254902,11.0142857 1.41176471,22.3016807 C1.41176471,22.6882353 1.09803922,22.997479 0.705882353,22.997479 C0.31372549,22.997479 0,22.6882353 0,22.3016807 C0,10.2798319 9.88235294,0.538655462 22.0784314,0.5 Z M22.0392157,6.80084034 C22.4313725,6.80084034 22.745098,7.11008403 22.745098,7.49663866 C22.745098,7.84453782 22.4705882,8.15378151 22.0784314,8.15378151 C14.1568627,8.15378151 7.7254902,14.4932773 7.76470588,22.2630252 C7.76470588,22.6495798 7.45098039,22.9588235 7.05882353,22.9588235 C6.66666667,22.9588235 6.35294118,22.6495798 6.35294118,22.2630252 C6.35294118,13.7588235 13.372549,6.80084034 22.0392157,6.80084034 Z M22.0392157,13.0243697 C22.4313725,13.0243697 22.745098,13.3336134 22.745098,13.7201681 C22.745098,14.1067227 22.4705882,14.3773109 22.0784314,14.3773109 C17.6862745,14.3773109 14.0784314,17.894958 14.0784314,22.2630252 C14.0784314,22.6495798 13.7647059,22.9588235 13.372549,22.9588235 C12.9803922,22.9588235 12.6666667,22.6495798 12.6666667,22.2630252 C12.6666667,17.1605042 16.8627451,13.0243697 22.0392157,13.0243697 Z M20.9803922,18.9386555 C20.0784314,18.9386555 19.3333333,19.6731092 19.3333333,20.5621849 C19.3333333,21.4512605 20.0784314,22.1857143 20.9803922,22.1857143 C21.8823529,22.1857143 22.627451,21.4512605 22.627451,20.5621849 C22.627451,19.6731092 21.8823529,18.9386555 20.9803922,18.9386555 Z" id="Combined-Shape" fill="#52503B" fill-rule="nonzero"></path>
    </g>
</svg>